<?xml version="1.0" encoding="utf-8"?>
<!-- Generator: Adobe Illustrator 25.0.0, SVG Export Plug-In . SVG Version: 6.00 Build 0)  -->
<svg version="1.1" id="Layer_1" xmlns="http://www.w3.org/2000/svg" xmlns:xlink="http://www.w3.org/1999/xlink" x="0px" y="0px"
	 viewBox="0 0 949.4 73.7" style="enable-background:new 0 0 949.4 73.7;" xml:space="preserve">
<g id="BLOCK_RECORD">
	<polygon points="16.1,12.2 48.8,71.6 86.6,71.6 118.7,12.2 134.8,12.2 134.8,1.5 86.4,1.5 86.4,12.2 100.4,12.2 77,55.5 53.3,12.2 
		70.3,12.2 70.3,1.5 0,1.5 0,12.2 	"/>
	<path d="M432.4,12.2V1.5h64.8v10.7H481v48.5h15c13.9,0,22.9-9.1,22.9-21.6h10.7v32.5h-97.3V60.7h16.3V12.2L432.4,12.2z"/>
	<path d="M275.3,0c-32.5,0-49.8,16.2-49.8,36.6c0,20.6,16.6,37.1,50,37.1s49.8-16.5,49.8-37.1C325.3,16.2,307.8,0,275.3,0z
		 M275,62.6c-11.9-0.2-17.1-13.4-16.9-26.4c0.2-13.5,6.7-25.3,17.8-25.1s17,12.2,16.8,25.7C292.4,49.5,287.2,62.8,275,62.6z"/>
	<polygon points="640.2,12.2 672.8,71.6 710.7,71.6 742.8,12.2 758.9,12.2 758.9,1.5 710.5,1.5 710.5,12.2 724.5,12.2 701.1,55.5 
		677.4,12.2 694.4,12.2 694.4,1.5 624.1,1.5 624.1,12.2 	"/>
	<path d="M899.4,0c-32.5,0-49.8,16.2-49.8,36.6c0,20.6,16.6,37.1,50,37.1s49.8-16.5,49.8-37.1C949.4,16.2,932,0,899.4,0z M899,62.6
		c-11.9-0.2-17.1-13.4-16.9-26.4c0.2-13.5,6.7-25.3,17.8-25.1s17,12.2,16.8,25.7C916.5,49.5,911.3,62.8,899,62.6z"/>
</g>
</svg>
