<?xml version="1.0" encoding="utf-8"?>
<!-- Generator: Adobe Illustrator 18.0.0, SVG Export Plug-In . SVG Version: 6.00 Build 0)  -->
<!DOCTYPE svg PUBLIC "-//W3C//DTD SVG 1.1//EN" "http://www.w3.org/Graphics/SVG/1.1/DTD/svg11.dtd">
<svg xmlns="http://www.w3.org/2000/svg" xmlns:xlink="http://www.w3.org/1999/xlink" version="1.1" id="Слой_2" x="0px" y="0px" viewBox="0 123 1200 578" enable-background="new 0 123 1200 578" xml:space="preserve">
<path fill="#4EDD69" stroke="" stroke-width="2" stroke-miterlimit="10" d="M282,586c-22.3,0-40.3,18-40.3,40.3  s18,40.3,40.3,40.3s40.3-18,40.3-40.3S304.2,586,282,586z M294.1,599.8c1.4-1.9,4-2.3,5.9-0.9c1.9,1.4,2.3,4,0.9,5.9  c-1.4,1.9-4,2.3-5.9,0.9C293.2,604.3,292.7,601.7,294.1,599.8z M280.4,593.5c2.3,0,4.2,1.9,4.2,4.2c0,2.3-1.9,4.2-4.2,4.2  c-2.3,0-4.2-1.9-4.2-4.2C276.2,595.4,278.1,593.5,280.4,593.5z M250.3,617.6c0.7-2.2,3.1-3.4,5.3-2.7c2.2,0.7,3.4,3.1,2.7,5.3  s-3.1,3.4-5.3,2.7C250.8,622.2,249.6,619.8,250.3,617.6z M256.6,640.6c-2.2,0.7-4.6-0.5-5.3-2.7c-0.7-2.2,0.5-4.6,2.7-5.3  c2.2-0.7,4.6,0.5,5.3,2.7C260,637.5,258.8,639.8,256.6,640.6z M260.5,606.5c-1.4-1.9-1-4.5,0.9-5.9c1.9-1.4,4.5-1,5.9,0.9  c1.4,1.9,1,4.5-0.9,5.9C264.5,608.8,261.9,608.4,260.5,606.5z M269.8,652.8c-1.4,1.9-4,2.3-5.9,0.9c-1.9-1.4-2.3-4-0.9-5.9  c1.4-1.9,4-2.3,5.9-0.9C270.8,648.2,271.2,650.9,269.8,652.8z M283.5,659.1c-2.3,0-4.2-1.9-4.2-4.2c0-2.3,1.9-4.2,4.2-4.2  s4.2,1.9,4.2,4.2C287.7,657.2,285.8,659.1,283.5,659.1z M282,643.9c-9.7,0-17.6-7.9-17.6-17.6s7.9-17.6,17.6-17.6  c9.7,0,17.6,7.9,17.6,17.6S291.7,643.9,282,643.9z M302.5,651.9c-1.9,1.4-4.5,1-5.9-0.9c-1.4-1.9-1-4.5,0.9-5.9  c1.9-1.4,4.5-1,5.9,0.9C304.8,647.9,304.4,650.5,302.5,651.9z M313.6,635c-0.7,2.2-3.1,3.4-5.3,2.7c-2.2-0.7-3.4-3.1-2.7-5.3  c0.7-2.2,3.1-3.4,5.3-2.7C313.1,630.4,314.3,632.7,313.6,635z M312.7,614.7c0.7,2.2-0.5,4.6-2.7,5.3c-2.2,0.7-4.6-0.5-5.3-2.7  c-0.7-2.2,0.5-4.6,2.7-5.3C309.6,611.3,312,612.5,312.7,614.7z"/>
<path fill="#4EDD69" stroke="" stroke-width="2" stroke-miterlimit="10" d="M99.3,586C77.1,586,59,604,59,626.3  s18,40.3,40.3,40.3s40.3-18,40.3-40.3S121.6,586,99.3,586z M111.5,599.8c1.4-1.9,4-2.3,5.9-0.9c1.9,1.4,2.3,4,0.9,5.9  c-1.4,1.9-4,2.3-5.9,0.9C110.5,604.3,110.1,601.7,111.5,599.8z M97.8,593.5c2.3,0,4.2,1.9,4.2,4.2c0,2.3-1.9,4.2-4.2,4.2  s-4.2-1.9-4.2-4.2C93.6,595.4,95.5,593.5,97.8,593.5z M67.7,617.6c0.7-2.2,3.1-3.4,5.3-2.7c2.2,0.7,3.4,3.1,2.7,5.3  s-3.1,3.4-5.3,2.7C68.2,622.2,67,619.8,67.7,617.6z M74,640.6c-2.2,0.7-4.6-0.5-5.3-2.7c-0.7-2.2,0.5-4.6,2.7-5.3  c2.2-0.7,4.6,0.5,5.3,2.7C77.4,637.5,76.2,639.8,74,640.6z M77.9,606.5c-1.4-1.9-1-4.5,0.9-5.9c1.9-1.4,4.5-1,5.9,0.9  c1.4,1.9,1,4.5-0.9,5.9C81.9,608.8,79.3,608.4,77.9,606.5z M87.2,652.8c-1.4,1.9-4,2.3-5.9,0.9c-1.9-1.4-2.3-4-0.9-5.9  c1.4-1.9,4-2.3,5.9-0.9C88.2,648.2,88.6,650.9,87.2,652.8z M100.9,659.1c-2.3,0-4.2-1.9-4.2-4.2c0-2.3,1.9-4.2,4.2-4.2  c2.3,0,4.2,1.9,4.2,4.2C105.1,657.2,103.2,659.1,100.9,659.1z M99.3,643.9c-9.7,0-17.6-7.9-17.6-17.6s7.9-17.6,17.6-17.6  c9.7,0,17.6,7.9,17.6,17.6S109.1,643.9,99.3,643.9z M119.8,651.9c-1.9,1.4-4.5,1-5.9-0.9c-1.4-1.9-1-4.5,0.9-5.9  c1.9-1.4,4.5-1,5.9,0.9C122.2,647.9,121.7,650.5,119.8,651.9z M131,635c-0.7,2.2-3.1,3.4-5.3,2.7c-2.2-0.7-3.4-3.1-2.7-5.3  c0.7-2.2,3.1-3.4,5.3-2.7C130.5,630.4,131.7,632.7,131,635z M130.1,614.7c0.7,2.2-0.5,4.6-2.7,5.3c-2.2,0.7-4.6-0.5-5.3-2.7  c-0.7-2.2,0.5-4.6,2.7-5.3C127,611.3,129.3,612.5,130.1,614.7z"/>
<path fill="#4EDD69" stroke="" stroke-width="2" stroke-miterlimit="10" d="M1026.6,586c-22.3,0-40.3,18-40.3,40.3  s18,40.3,40.3,40.3c22.3,0,40.3-18,40.3-40.3S1048.9,586,1026.6,586z M1038.8,599.8c1.4-1.9,4-2.3,5.9-0.9c1.9,1.4,2.3,4,0.9,5.9  c-1.4,1.9-4,2.3-5.9,0.9C1037.8,604.3,1037.4,601.7,1038.8,599.8z M1025.1,593.5c2.3,0,4.2,1.9,4.2,4.2c0,2.3-1.9,4.2-4.2,4.2  c-2.3,0-4.2-1.9-4.2-4.2C1020.9,595.4,1022.8,593.5,1025.1,593.5z M995,617.6c0.7-2.2,3.1-3.4,5.3-2.7c2.2,0.7,3.4,3.1,2.7,5.3  s-3.1,3.4-5.3,2.7C995.5,622.2,994.3,619.8,995,617.6z M1001.2,640.6c-2.2,0.7-4.6-0.5-5.3-2.7c-0.7-2.2,0.5-4.6,2.7-5.3  c2.2-0.7,4.6,0.5,5.3,2.7S1003.5,639.8,1001.2,640.6z M1005.2,606.5c-1.4-1.9-1-4.5,0.9-5.9c1.9-1.4,4.5-1,5.9,0.9  c1.4,1.9,1,4.5-0.9,5.9C1009.2,608.8,1006.6,608.4,1005.2,606.5z M1014.5,652.8c-1.4,1.9-4,2.3-5.9,0.9c-1.9-1.4-2.3-4-0.9-5.9  c1.4-1.9,4-2.3,5.9-0.9C1015.4,648.2,1015.9,650.9,1014.5,652.8z M1028.1,659.1c-2.3,0-4.2-1.9-4.2-4.2c0-2.3,1.9-4.2,4.2-4.2  c2.3,0,4.2,1.9,4.2,4.2C1032.4,657.2,1030.5,659.1,1028.1,659.1z M1026.6,643.9c-9.7,0-17.6-7.9-17.6-17.6s7.9-17.6,17.6-17.6  s17.6,7.9,17.6,17.6S1036.3,643.9,1026.6,643.9z M1047.1,651.9c-1.9,1.4-4.5,1-5.9-0.9c-1.4-1.9-1-4.5,0.9-5.9  c1.9-1.4,4.5-1,5.9,0.9C1049.4,647.9,1049,650.5,1047.1,651.9z M1058.3,635c-0.7,2.2-3.1,3.4-5.3,2.7c-2.2-0.7-3.4-3.1-2.7-5.3  c0.7-2.2,3.1-3.4,5.3-2.7C1057.8,630.4,1059,632.7,1058.3,635z M1057.3,614.7c0.7,2.2-0.5,4.6-2.7,5.3c-2.2,0.7-4.6-0.5-5.3-2.7  s0.5-4.6,2.7-5.3C1054.2,611.3,1056.6,612.5,1057.3,614.7z"/>
<path fill="#4EDD69" stroke="" stroke-width="2" stroke-miterlimit="10" d="M588.2,265.8h68.9c7.3,0,13.2-5.6,13.2-12.4v-27.6  c0-6.8-5.9-12.4-13.2-12.4h-68.9c-7.3,0-13.2,5.6-13.2,12.4v27.6C574.9,260.3,580.9,265.8,588.2,265.8z"/>
<path fill="#4EDD69" stroke="" stroke-width="2" stroke-miterlimit="10" d="M1195.2,593.8l-2.7-2.4c0,0,1-8.4-0.7-13.9  s-5.7-10.8-5.7-10.8s-2.7-37.9-5.7-58.8s-4.7-38.2-10.1-41.9c-1.4-1-6.4-3.2-13.4-6.1l1.5-13.7c3.5-1.7,6.1-7.5,6.1-14.4  c0-8.2-3.7-14.9-8.3-14.9c-4.6,0-8.3,6.7-8.3,14.9c0,7.8,3.3,14.1,7.5,14.8l-1.8,11.9c-20.1-8.2-53.6-20.6-75-27.4  c-30.8-9.8-89.2-20.6-93.6-21.6c-4.4-1-9.8-5.4-9.8-5.4l-20.6-39.5c0,0,0.3-14.2,0-19.3s-2-7.4-2-7.4v-11.2l-16.2-1.7v-4.7  c0,0,14.2,0,18.6,1.4s9.1,2,10.1,1c1-1,1.7-6.8-10.1-24.3c-11.8-17.6-10.5-17.6-21.6-22c-11.2-4.4-21-3.7-32.1-16.6  c-11.2-12.8-75-58.8-119-74.4C738.2,170,670.6,150.1,627.4,148c-43.3-2-50.7-4.1-50.7-4.1s-23-11.5-37.5-12.8  c-14.5-1.4-40.9-3.7-47.3-2c-6.4,1.7-17.6,4.4-18.9,16.2c-1.4,11.8-9.5,91.3-10.1,145c-0.7,53.7-1.4,91.3,0,143  c1.4,51.7,1.4,105.1,1.4,105.1l0.3,5.1H364c0.9-3.4,1.8-6.4,1.8-6.4h-3.2c0,0-2.7,2.6-4.1,6.4H254.6v-22l17.2-6.4v-5.7l2.7-2  l-2.4-4.7l-94,24.3v7.1l5.1,0.3l-0.2,9.1H82.6v8.4l-33.1,0v7.1l-37.2,8.1c0,0-3.4,3.7,0,7.1c3.4,3.4,3.4,3.4,3.4,3.4  s0.7,86.5-4.9,91.9c-5.6,5.4-5.6,5.4-5.6,5.4s12.5-2,16.9-5.4s6.8-83.1,4.4-89.6s0.3-4.7,0.3-4.7l22-8.4l0.2,10.9  c-12.1,12.6-19.6,29.7-19.6,48.5c0,38.6,31.3,70,70,70s70-31.3,70-70c0-2.2-0.1-4.4-0.3-6.5l27.5,1.8l15.8-1.6  c-0.2,2.1-0.3,4.2-0.3,6.4c0,38.6,31.3,70,70,70c35.8,0,65.3-26.9,69.4-61.6l27.6,1.1c0,0-0.3,10.5-0.3,13.9s0,8.4,0,8.4l323.4,2  l4.4-6.4l6.1-1l-0.7,7.8l232.5-1.4c0,0,0-6.1,0.3-10.5s1.4-19.9,1.4-19.9h10.7c1.3,37.5,32.1,67.6,69.9,67.6c38.6,0,70-31.3,70-70  h12.1c0,0,0,10.8,0,14.9s0,9.1,0,9.1s56.1-2,67.9-3.7s18.6-6.4,18.6-6.4l-3-10.8L1195.2,593.8z M99.3,670.8  c-24.6,0-44.6-20-44.6-44.6s20-44.6,44.6-44.6c24.6,0,44.6,20,44.6,44.6S124,670.8,99.3,670.8z M282,670.8  c-24.6,0-44.6-20-44.6-44.6s20-44.6,44.6-44.6c24.6,0,44.6,20,44.6,44.6S306.6,670.8,282,670.8z M567.9,222.7  c0-8.4,6.8-15.2,15.2-15.2h79.1c8.4,0,15.2,6.8,15.2,15.2v33.8c0,8.4-6.8,15.2-15.2,15.2h-79.1c-8.4,0-15.2-6.8-15.2-15.2V222.7z   M679.6,379c0,9.8-7.6,17.8-17,17.8h-88.2c-9.4,0-17-8-17-17.8v-39.5c0-9.8,7.6-17.8,17-17.8h88.2c9.4,0,17,8,17,17.8V379z   M933.9,430.3l-100.4-9.1c-8.4,0-15.2-6.8-15.2-15.2V343c0-8.4,6.8-15.2,15.2-15.2h79.1c8.4,0,15.2,6.8,15.2,15.2l21.3,72  C949.1,423.4,942.3,430.3,933.9,430.3z M1026.6,670.8c-24.6,0-44.6-20-44.6-44.6s20-44.6,44.6-44.6c24.6,0,44.6,20,44.6,44.6  S1051.2,670.8,1026.6,670.8z"/>
<path fill="#4EDD69" stroke="" stroke-width="2" stroke-miterlimit="10" d="M657,328.7h-76.8c-8.2,0-14.8,6.5-14.8,14.5v32.2  c0,8,6.6,14.5,14.8,14.5H657c8.2,0,14.8-6.5,14.8-14.5v-32.2C671.8,335.2,665.1,328.7,657,328.7z"/>
</svg>
