<svg width="128" height="128" viewBox="0 0 128 128" fill="none" xmlns="http://www.w3.org/2000/svg">
<path d="M122.06 67.05L120.82 66.27L120.22 61C120.16 60.67 119.94 59.78 119.94 59.78C119.94 59.78 119.94 59.72 119.94 59.68C119.374 58.2384 118.338 57.0299 117 56.25C115.15 55.16 110.91 54.08 107.68 53.36C106.14 53.02 105.08 52.81 104.23 52.69L102.23 34.78C102.176 34.2886 101.941 33.8347 101.572 33.506C101.202 33.1773 100.724 32.997 100.23 33C96.81 33 93.29 33 89.93 33.09H89.84C82.07 33.27 75.19 33.67 72.53 33.94C72.0535 33.9899 71.6108 34.2091 71.2823 34.5577C70.9538 34.9064 70.7614 35.3614 70.74 35.84V36.36C70.7278 36.6318 70.7711 36.9033 70.8674 37.1578C70.9637 37.4122 71.1109 37.6444 71.3 37.84C71.5703 38.1239 71.918 38.3221 72.3 38.41C69.217 44.3997 67.1009 50.8392 66.03 57.49C65.95 57.94 65.88 58.41 65.82 58.88L64.42 49.31C64.3661 48.929 64.2035 48.5717 63.9517 48.2808C63.6998 47.9899 63.3694 47.7778 63 47.67L60.29 46.95H60.21L59.93 46.63C59.583 46.2357 59.0949 45.9937 58.571 45.9563C58.0471 45.9189 57.5295 46.089 57.13 46.43L36.23 64.27C35.9356 64.5211 35.7203 64.8522 35.6102 65.2231C35.5002 65.5941 35.5001 65.989 35.61 66.36L27.07 73.64L23.93 71.47L22.03 68.47C21.8493 68.1884 21.6008 67.9566 21.3073 67.7958C21.0138 67.6351 20.6846 67.5506 20.35 67.55H12.83C12.561 67.5411 12.2933 67.5901 12.0448 67.6936C11.7964 67.7971 11.5731 67.9528 11.39 68.15C11.2016 68.3425 11.054 68.571 10.956 68.8219C10.8581 69.0728 10.8118 69.3408 10.82 69.61L11.03 77.5C10.45 78.61 9.63 80.5 8.25 83.62C7.19 86.02 6.15 88.42 5.67 89.54L4.07 90.4C3.75612 90.5647 3.49164 90.8098 3.30363 91.1102C3.11562 91.4107 3.01083 91.7557 3 92.11V92.48C2.99979 92.7439 3.05182 93.0053 3.15308 93.249C3.25434 93.4927 3.40283 93.714 3.59 93.9C3.96335 94.2756 4.47042 94.4878 5 94.49H25.62C25.9424 94.4895 26.26 94.411 26.5455 94.2613C26.8311 94.1115 27.0762 93.895 27.26 93.63L31.48 87.57C31.6761 87.2906 31.7975 86.9656 31.8325 86.626C31.8675 86.2865 31.815 85.9436 31.68 85.63L30.27 82.35C30.3959 81.5027 30.4527 80.6465 30.44 79.79L33.83 76.92C33.7545 77.4769 33.7144 78.038 33.71 78.6C33.7294 82.1379 35.0992 85.5349 37.5393 88.0967C39.9794 90.6586 43.3057 92.1919 46.8385 92.3834C50.3712 92.5749 53.8438 91.4102 56.5466 89.1271C59.2493 86.8441 60.9782 83.6151 61.38 80.1H79.74C80.118 83.3343 81.622 86.3325 83.9884 88.5693C86.3548 90.8062 89.4328 92.1392 92.6833 92.3347C95.9337 92.5303 99.1493 91.576 101.767 89.6389C104.384 87.7019 106.237 84.9057 107 81.74C107.016 81.7014 107.036 81.6645 107.06 81.63L107.45 80.37L117.67 79.32C117.963 79.29 118.246 79.1955 118.498 79.0434C118.751 78.8912 118.967 78.6852 119.13 78.44L122.63 73.2C122.851 72.8718 122.969 72.4855 122.97 72.09V68.74C122.972 68.4046 122.89 68.074 122.731 67.7787C122.572 67.4834 122.341 67.2328 122.06 67.05ZM91.92 37.05L98.47 37L100.17 52.54C97.65 52.74 94.17 53.22 91.92 53.54V37.05ZM70 58.17C72.18 45.27 77.39 37.68 77.44 37.6C80.25 37.43 83.91 37.26 87.91 37.15V55.5C86.64 57.98 83.75 63.5 82.51 65.3C82.2259 65.7124 81.8529 66.0558 81.4185 66.305C80.9841 66.5542 80.4994 66.7029 80 66.74H79.81C76.57 66.92 72.93 67.11 72.21 67.1C70.37 66.8 69.43 66.04 69.42 64.83C69.4636 62.5995 69.6574 60.3745 70 58.17ZM63.06 67.47C63.28 68.96 63.78 72.34 66.94 72.73V76.1H61.23C60.8394 73.991 59.9664 72.001 58.6792 70.2853C57.3921 68.5697 55.7256 67.1749 53.81 66.21C54.81 63.54 56.44 58.95 57.51 55.85L60.15 51.06L60.68 51.2L63.06 67.47ZM52.37 58.35L44.46 65.11H44.3C43.0809 65.4186 41.91 65.893 40.82 66.52L40.33 65.95L53.69 54.55C53.49 55.18 53 56.64 52.37 58.35ZM24.57 90.49H9.57C11.51 86.02 14.2 79.87 14.68 78.93C14.9093 78.5769 15.0212 78.1605 15 77.74L14.83 71.48H19.2L20.73 73.88C20.8735 74.1048 21.0605 74.2986 21.28 74.45L26 77.74C26.18 77.93 26.35 78.22 26.43 79.1C26.4243 79.1432 26.4243 79.1869 26.43 79.23C26.43 79.29 26.43 79.34 26.43 79.41C26.4856 80.2908 26.4251 81.175 26.25 82.04C26.1244 82.477 26.1563 82.9442 26.34 83.36L27.56 86.2L24.57 90.49ZM47.57 88.49C45.5287 88.4993 43.5352 87.8728 41.8662 86.6975C40.1971 85.5223 38.9353 83.8567 38.256 81.9317C37.5766 80.0068 37.5133 77.9181 38.0749 75.9556C38.6365 73.9931 39.7952 72.2541 41.39 70.98C41.48 70.93 41.57 70.9 41.66 70.84C42.8546 69.8893 44.2554 69.2317 45.75 68.92C46.3364 68.8042 46.9323 68.744 47.53 68.74C50.1503 68.74 52.6634 69.781 54.5162 71.6338C56.3691 73.4867 57.41 75.9997 57.41 78.62C57.41 81.2404 56.3691 83.7534 54.5162 85.6062C52.6634 87.4591 50.1503 88.5 47.53 88.5L47.57 88.49ZM70.92 76.11V72.74C71.3988 72.6444 71.8532 72.4524 72.2555 72.1756C72.6578 71.8988 72.9995 71.5431 73.26 71.13C74.42 71.13 76.41 71 79.93 70.79C80.843 70.7654 81.7428 70.5651 82.58 70.2C81.2101 71.9344 80.2741 73.9709 79.85 76.14H70.85L70.92 76.11ZM93.51 88.49C90.8922 88.4847 88.3833 87.4418 86.5332 85.5898C84.683 83.7378 83.6426 81.2278 83.64 78.61C83.6738 75.9994 84.7272 73.5055 86.5753 71.6612C88.4233 69.8169 90.9193 68.7685 93.53 68.74C96.1503 68.74 98.6634 69.781 100.516 71.6338C102.369 73.4867 103.41 75.9997 103.41 78.62C103.41 81.2404 102.369 83.7534 100.516 85.6062C98.6634 87.4591 96.1503 88.5 93.53 88.5L93.51 88.49ZM118.99 71.49L116.35 75.44L107.2 76.38C106.666 73.1368 104.999 70.1878 102.496 68.0568C99.9938 65.9258 96.817 64.7507 93.53 64.74C90.9519 64.7537 88.4308 65.4993 86.26 66.89C87.79 64.47 90.26 59.69 91.26 57.74C94.26 57.3 99.67 56.55 101.91 56.49C102.052 56.5204 102.195 56.5404 102.34 56.55C103.84 56.6567 105.327 56.9044 106.78 57.29C111.55 58.34 114.12 59.23 114.93 59.71C115.4 59.9882 115.792 60.3803 116.07 60.85C116.07 61.02 116.23 61.45 116.25 61.57L117 67.74C117.034 68.0393 117.136 68.3269 117.297 68.5814C117.458 68.836 117.674 69.0508 117.93 69.21L119.06 69.91L118.99 71.49Z" fill="black"/>
</svg>
